<svg width="70" height="56" viewBox="0 0 70 56" fill="none" xmlns="http://www.w3.org/2000/svg">
<path d="M2.33334 14.5797C1.83138 14.5793 1.386 14.258 1.22733 13.7817L0.0606689 10.2817C0.0207062 10.1629 0.000297546 10.0385 0 9.91304V5.24638C0 4.60209 0.522377 4.07971 1.16667 4.07971H53.4473C55.3774 0.733712 59.6546 -0.414142 63.0006 1.51596C65.1675 2.7659 66.5019 5.07809 66.5 7.57971V34.413H68.8333C69.4776 34.413 70 34.9354 70 35.5797V49.5797C70 50.224 69.4776 50.7464 68.8333 50.7464H67.6667V53.0797H68.8333V55.413H64.1667V53.0797H65.3333V50.7464H60.55C59.9057 53.9029 56.8244 55.9395 53.6678 55.2952C50.5113 54.6509 48.4747 51.5696 49.119 48.413C49.7633 45.2565 52.8446 43.2199 56.0012 43.8642C58.2921 44.3319 60.0823 46.1221 60.55 48.413H63V41.413H37.8163L35 44.2294V48.413H37.45C38.0943 45.2565 41.1756 43.2199 44.3322 43.8642C47.4887 44.5085 49.5253 47.5898 48.881 50.7464C48.2367 53.9029 45.1554 55.9395 41.9988 55.2952C39.7079 54.8275 37.9177 53.0373 37.45 50.7464H23.3333V53.0797H24.5V55.413H19.8333V53.0797H21V50.7464H16.2167C15.5756 53.9037 12.4965 55.9433 9.33917 55.3022C7.04361 54.8361 5.24942 53.0419 4.78333 50.7464H1.16667C0.522377 50.7464 0 50.224 0 49.5797V37.913C0 37.7644 0.0281448 37.6171 0.0828323 37.479L4.7495 25.8124C4.92698 25.3695 5.35617 25.0794 5.83334 25.0797H19.8333C20.4776 25.0797 21 25.6021 21 26.2464V34.413H40.8333V27.2544C40.8379 23.4779 43.8982 20.4176 47.6747 20.413H52.5V18.9069L30.135 11.0797H9.00667L8.106 13.7817C7.94734 14.258 7.50196 14.5793 7 14.5797H5.83334V16.913C5.83334 17.5573 5.31096 18.0797 4.66667 18.0797C4.02238 18.0797 3.5 18.6021 3.5 19.2464C3.5 19.8907 4.02238 20.413 4.66667 20.413C5.31096 20.413 5.83334 19.8907 5.83334 19.2464H8.16667C8.16623 21.1794 6.59896 22.7461 4.66594 22.7456C2.73292 22.7452 1.16623 21.1779 1.16667 19.2449C1.16696 17.7619 2.10175 16.4401 3.5 15.9457V14.5796H2.33334V14.5797ZM54.8333 46.0797C52.9003 46.0797 51.3333 47.6467 51.3333 49.5797C51.3333 51.5127 52.9003 53.0797 54.8333 53.0797C56.7664 53.0797 58.3333 51.5127 58.3333 49.5797C58.3333 47.6467 56.7664 46.0797 54.8333 46.0797ZM43.1667 53.0797C45.0997 53.0797 46.6667 51.5127 46.6667 49.5797C46.6667 47.6467 45.0997 46.0797 43.1667 46.0797C41.2336 46.0797 39.6667 47.6467 39.6667 49.5797C39.6667 51.5127 41.2336 53.0797 43.1667 53.0797ZM10.5 53.0797C12.433 53.0797 14 51.5127 14 49.5797C14 47.6467 12.433 46.0797 10.5 46.0797C8.56698 46.0797 7 47.6467 7 49.5797C7 51.5127 8.56698 53.0797 10.5 53.0797ZM18.6667 27.413H6.62317L2.33334 38.137V42.5797H4.66667V44.913H2.33334V48.413H4.78333C5.42442 45.2558 8.50354 43.2161 11.6608 43.8572C13.9564 44.3233 15.7506 46.1175 16.2167 48.413H18.6667V27.413ZM64.1667 7.57971C64.1667 5.0024 62.0773 2.91304 59.5 2.91304C56.9227 2.91304 54.8333 5.0024 54.8333 7.57971V34.413H64.1667V7.57971ZM65.3333 48.413H67.6667V41.413H65.3333V48.413ZM21 48.413H23.3333V41.413H21V48.413ZM21 36.7464V39.0797H24.5C25.1443 39.0797 25.6667 39.6021 25.6667 40.2464V48.413H32.6667V43.7464C32.6667 43.4369 32.7897 43.1403 33.0085 42.9215L36.5085 39.4215C36.7272 39.2028 37.0239 39.0797 37.3333 39.0797H67.6667V36.7464H21ZM47.8333 22.7464H47.6747C45.186 22.749 43.1693 24.7657 43.1667 27.2544V28.5797H47.8333V22.7464ZM50.1667 22.7464V29.7464C50.1667 30.3907 49.6443 30.913 49 30.913H43.1667V34.413H52.5V22.7464H50.1667ZM52.5 16.4359V11.0797H37.198L52.5 16.4359ZM16.3333 8.74638H52.5V6.41304H16.3333V8.74638ZM9.33334 8.74638H14V6.41304H9.33334V8.74638ZM6.15884 12.2464L7 9.72404V6.41304H2.33334V9.72404L3.1745 12.2464H6.15884Z" fill="#2D2D2D"/>
</svg>
