<svg width="268" height="40" viewBox="0 0 268 40" fill="none" xmlns="http://www.w3.org/2000/svg">
<path fill-rule="evenodd" clip-rule="evenodd" d="M22.4511 16.3871C22.4511 17.995 21.1636 19.2742 19.6052 19.2742C18.0468 19.2742 16.7594 17.995 16.7594 16.3871C16.7594 14.7792 18.0468 13.5 19.6052 13.5C21.1636 13.5 22.4511 14.7792 22.4511 16.3871ZM23.9511 16.3871C23.9511 18.8101 22.0054 20.7742 19.6052 20.7742C17.2051 20.7742 15.2594 18.8101 15.2594 16.3871C15.2594 13.9642 17.2051 12 19.6052 12C22.0054 12 23.9511 13.9642 23.9511 16.3871ZM12.8136 27.1081C15.3783 25.1007 21.0557 22.7734 26.3853 27.0932C26.4272 27.1272 26.4605 27.1889 26.4605 27.2634V28.2499H12.75V27.2634C12.75 27.1819 12.7831 27.132 12.8136 27.1081ZM27.3298 25.928C21.2187 20.9746 14.7192 23.7117 11.8891 25.9269C11.4623 26.2609 11.25 26.7643 11.25 27.2634V28.9999V29.7499H12H27.2105H27.9605V28.9999V27.2634C27.9605 26.7574 27.7389 26.2596 27.3298 25.928Z" fill="black"/>
<path d="M47.9829 26H41.5989V14.576H47.9829V15.84H43.0389V19.408H47.6949V20.656H43.0389V24.736H47.9829V26ZM51.7055 26H50.2975V13.84H51.7055V26ZM57.7345 17.264C58.4705 17.264 59.0998 17.424 59.6225 17.744C60.1558 18.064 60.5612 18.5173 60.8385 19.104C61.1265 19.68 61.2705 20.3573 61.2705 21.136V21.984H55.3985C55.4198 22.9547 55.6652 23.696 56.1345 24.208C56.6145 24.7093 57.2812 24.96 58.1345 24.96C58.6785 24.96 59.1585 24.912 59.5745 24.816C60.0012 24.7093 60.4385 24.56 60.8865 24.368V25.6C60.4492 25.792 60.0172 25.9307 59.5905 26.016C59.1638 26.112 58.6572 26.16 58.0705 26.16C57.2598 26.16 56.5398 25.9947 55.9105 25.664C55.2918 25.3333 54.8065 24.8427 54.4545 24.192C54.1132 23.5307 53.9425 22.7253 53.9425 21.776C53.9425 20.8373 54.0972 20.032 54.4065 19.36C54.7265 18.688 55.1692 18.1707 55.7345 17.808C56.3105 17.4453 56.9772 17.264 57.7345 17.264ZM57.7185 18.416C57.0465 18.416 56.5132 18.6347 56.1185 19.072C55.7345 19.4987 55.5052 20.096 55.4305 20.864H59.7985C59.7878 20.1387 59.6172 19.552 59.2865 19.104C58.9558 18.6453 58.4332 18.416 57.7185 18.416ZM67.5818 17.264C68.6058 17.264 69.3791 17.5147 69.9018 18.016C70.4244 18.5067 70.6858 19.3067 70.6858 20.416V26H69.2938V20.512C69.2938 19.136 68.6538 18.448 67.3738 18.448C66.4244 18.448 65.7684 18.7147 65.4058 19.248C65.0431 19.7813 64.8618 20.5493 64.8618 21.552V26H63.4538V17.424H64.5898L64.7978 18.592H64.8778C65.1551 18.144 65.5391 17.8133 66.0298 17.6C66.5204 17.376 67.0378 17.264 67.5818 17.264ZM76.5924 17.28C77.6377 17.28 78.411 17.5093 78.9124 17.968C79.4137 18.4267 79.6644 19.1573 79.6644 20.16V26H78.6404L78.3684 24.784H78.3044C77.931 25.2533 77.5364 25.6 77.1204 25.824C76.715 26.048 76.1497 26.16 75.4244 26.16C74.6457 26.16 74.0004 25.9573 73.4884 25.552C72.9764 25.136 72.7204 24.4907 72.7204 23.616C72.7204 22.7627 73.0564 22.1067 73.7284 21.648C74.4004 21.1787 75.435 20.9227 76.8324 20.88L78.2884 20.832V20.32C78.2884 19.6053 78.1337 19.1093 77.8244 18.832C77.515 18.5547 77.0777 18.416 76.5124 18.416C76.0644 18.416 75.6377 18.4853 75.2324 18.624C74.827 18.752 74.4484 18.9013 74.0964 19.072L73.6644 18.016C74.0377 17.8133 74.4804 17.6427 74.9924 17.504C75.5044 17.3547 76.0377 17.28 76.5924 17.28ZM77.0084 21.856C75.9417 21.8987 75.2004 22.0693 74.7844 22.368C74.379 22.6667 74.1764 23.088 74.1764 23.632C74.1764 24.112 74.3204 24.464 74.6084 24.688C74.907 24.912 75.2857 25.024 75.7444 25.024C76.4697 25.024 77.0724 24.8267 77.5524 24.432C78.0324 24.0267 78.2724 23.408 78.2724 22.576V21.808L77.0084 21.856Z" fill="black"/>
<path d="M118.684 21.8183L119.214 22.3485L119.23 22.3328L119.245 22.3162L118.684 21.8183ZM111.997 28.5L111.467 29.0303L111.997 29.5607L112.527 29.0303L111.997 28.5ZM105.316 21.8182L104.755 22.3162C104.765 22.3273 104.775 22.3381 104.786 22.3485L105.316 21.8182ZM105.316 15.427L104.786 14.8967L104.786 14.8967L105.316 15.427ZM111.997 16.4199L111.467 16.9502C111.607 17.0908 111.798 17.1699 111.997 17.1699C112.196 17.1699 112.387 17.0908 112.527 16.9502L111.997 16.4199ZM112.003 28.5L111.473 29.0303L112.003 29.5607L112.533 29.0303L112.003 28.5ZM118.154 21.2877L111.47 27.9665L112.53 29.0276L119.214 22.3488L118.154 21.2877ZM111.47 27.9667L111.467 27.9696L112.527 29.0303L112.53 29.0274L111.47 27.9667ZM112.527 27.9697L105.846 21.2879L104.786 22.3485L111.467 29.0303L112.527 27.9697ZM105.846 15.9573C106.496 15.3074 107.438 15.1188 108.508 15.3349C109.583 15.5519 110.681 16.1647 111.467 16.9502L112.527 15.8896C111.548 14.9101 110.189 14.1441 108.805 13.8646C107.417 13.5843 105.901 13.7817 104.786 14.8967L105.846 15.9573ZM104.786 14.8967C102.71 16.9727 102.776 20.0873 104.755 22.3162L105.877 21.3203C104.366 19.6186 104.393 17.4111 105.846 15.9573L104.786 14.8967ZM104.786 22.3488L111.47 29.0276L112.53 27.9665L105.846 21.2877L104.786 22.3488ZM111.47 29.0273L111.473 29.0303L112.533 27.9697L112.53 27.9667L111.47 29.0273ZM112.533 29.0303L119.214 22.3485L118.154 21.288L111.473 27.9697L112.533 29.0303ZM119.214 14.8967C118.099 13.7816 116.581 13.5844 115.192 13.8646C113.807 14.1439 112.446 14.9099 111.467 15.8896L112.527 16.9502C113.313 16.165 114.413 15.552 115.489 15.335C116.561 15.1188 117.504 15.3076 118.154 15.9573L119.214 14.8967ZM118.154 15.9573C119.607 17.4111 119.634 19.6186 118.123 21.3203L119.245 22.3162C121.224 20.0873 121.29 16.9727 119.214 14.8967L118.154 15.9573Z" fill="black"/>
<rect x="118" y="6" width="18" height="18" rx="9" fill="#F46D69"/>
<path d="M129.482 12.936C129.482 13.512 129.322 13.972 129.002 14.316C128.682 14.652 128.25 14.876 127.706 14.988V15.036C128.394 15.116 128.906 15.332 129.242 15.684C129.578 16.036 129.746 16.496 129.746 17.064C129.746 17.56 129.63 18.004 129.398 18.396C129.166 18.78 128.806 19.08 128.318 19.296C127.838 19.512 127.218 19.62 126.458 19.62C126.01 19.62 125.594 19.584 125.21 19.512C124.826 19.448 124.458 19.328 124.106 19.152V18.168C124.466 18.344 124.854 18.484 125.27 18.588C125.686 18.684 126.086 18.732 126.47 18.732C127.238 18.732 127.79 18.584 128.126 18.288C128.47 17.984 128.642 17.568 128.642 17.04C128.642 16.504 128.43 16.12 128.006 15.888C127.59 15.648 127.002 15.528 126.242 15.528H125.414V14.628H126.254C126.958 14.628 127.49 14.48 127.85 14.184C128.218 13.888 128.402 13.496 128.402 13.008C128.402 12.592 128.262 12.272 127.982 12.048C127.702 11.816 127.322 11.7 126.842 11.7C126.378 11.7 125.982 11.768 125.654 11.904C125.326 12.04 125.002 12.212 124.682 12.42L124.154 11.7C124.458 11.46 124.834 11.252 125.282 11.076C125.738 10.9 126.254 10.812 126.83 10.812C127.726 10.812 128.39 11.012 128.822 11.412C129.262 11.812 129.482 12.32 129.482 12.936Z" fill="white"/>
<path fill-rule="evenodd" clip-rule="evenodd" d="M166.946 12.8777C166.946 12.4635 167.282 12.1277 167.696 12.1277H168.427C169.682 12.1277 170.778 12.9769 171.091 14.1918L171.749 16.7495H184.01C185.159 16.7495 185.996 17.8374 185.702 18.9477L184.25 24.4266C183.931 25.6325 182.839 26.4722 181.592 26.4722H174.836C173.581 26.4722 172.486 25.6231 172.173 24.4081L170.442 17.6865L169.638 14.566C169.496 14.0137 168.998 13.6277 168.427 13.6277H167.696C167.282 13.6277 166.946 13.292 166.946 12.8777ZM172.136 18.2495L173.626 24.034C173.768 24.5862 174.266 24.9722 174.836 24.9722H181.592C182.159 24.9722 182.655 24.5905 182.8 24.0424L184.252 18.5635C184.294 18.4049 184.174 18.2495 184.01 18.2495H172.136ZM180.995 29.0935C181.139 29.0935 181.33 28.9608 181.33 28.7046C181.33 28.4485 181.139 28.3157 180.995 28.3157C180.851 28.3157 180.66 28.4485 180.66 28.7046C180.66 28.9608 180.851 29.0935 180.995 29.0935ZM180.995 30.5935C182.008 30.5935 182.83 29.7478 182.83 28.7046C182.83 27.6614 182.008 26.8157 180.995 26.8157C179.981 26.8157 179.16 27.6614 179.16 28.7046C179.16 29.7478 179.981 30.5935 180.995 30.5935ZM175.961 28.7046C175.961 28.9608 175.77 29.0935 175.626 29.0935C175.482 29.0935 175.292 28.9608 175.292 28.7046C175.292 28.4485 175.482 28.3157 175.626 28.3157C175.77 28.3157 175.961 28.4485 175.961 28.7046ZM177.461 28.7046C177.461 29.7478 176.64 30.5935 175.626 30.5935C174.613 30.5935 173.792 29.7478 173.792 28.7046C173.792 27.6614 174.613 26.8157 175.626 26.8157C176.64 26.8157 177.461 27.6614 177.461 28.7046Z" fill="black"/>
<rect x="181" y="6" width="18" height="18" rx="9" fill="#F46D69"/>
<path d="M192.806 19.5H187.142V18.624L189.386 16.356C189.818 15.924 190.182 15.54 190.478 15.204C190.774 14.868 190.998 14.54 191.15 14.22C191.302 13.892 191.378 13.536 191.378 13.152C191.378 12.68 191.238 12.324 190.958 12.084C190.678 11.836 190.314 11.712 189.866 11.712C189.45 11.712 189.082 11.784 188.762 11.928C188.45 12.072 188.13 12.272 187.802 12.528L187.238 11.82C187.574 11.54 187.958 11.304 188.39 11.112C188.83 10.912 189.322 10.812 189.866 10.812C190.666 10.812 191.298 11.016 191.762 11.424C192.226 11.824 192.458 12.38 192.458 13.092C192.458 13.54 192.366 13.96 192.182 14.352C191.998 14.744 191.742 15.132 191.414 15.516C191.086 15.892 190.702 16.296 190.262 16.728L188.474 18.492V18.54H192.806V19.5Z" fill="white"/>
<path d="M213.349 17.248C213.349 18.016 213.136 18.6293 212.709 19.088C212.282 19.536 211.706 19.8347 210.981 19.984V20.048C211.898 20.1547 212.581 20.4427 213.029 20.912C213.477 21.3813 213.701 21.9947 213.701 22.752C213.701 23.4133 213.546 24.0053 213.237 24.528C212.928 25.04 212.448 25.44 211.797 25.728C211.157 26.016 210.33 26.16 209.317 26.16C208.72 26.16 208.165 26.112 207.653 26.016C207.141 25.9307 206.65 25.7707 206.181 25.536V24.224C206.661 24.4587 207.178 24.6453 207.733 24.784C208.288 24.912 208.821 24.976 209.333 24.976C210.357 24.976 211.093 24.7787 211.541 24.384C212 23.9787 212.229 23.424 212.229 22.72C212.229 22.0053 211.946 21.4933 211.381 21.184C210.826 20.864 210.042 20.704 209.029 20.704H207.925V19.504H209.045C209.984 19.504 210.693 19.3067 211.173 18.912C211.664 18.5173 211.909 17.9947 211.909 17.344C211.909 16.7893 211.722 16.3627 211.349 16.064C210.976 15.7547 210.469 15.6 209.829 15.6C209.21 15.6 208.682 15.6907 208.245 15.872C207.808 16.0533 207.376 16.2827 206.949 16.56L206.245 15.6C206.65 15.28 207.152 15.0027 207.749 14.768C208.357 14.5333 209.045 14.416 209.813 14.416C211.008 14.416 211.893 14.6827 212.469 15.216C213.056 15.7493 213.349 16.4267 213.349 17.248ZM222.505 17.248C222.505 18.016 222.292 18.6293 221.865 19.088C221.439 19.536 220.863 19.8347 220.137 19.984V20.048C221.055 20.1547 221.737 20.4427 222.185 20.912C222.633 21.3813 222.857 21.9947 222.857 22.752C222.857 23.4133 222.703 24.0053 222.393 24.528C222.084 25.04 221.604 25.44 220.953 25.728C220.313 26.016 219.487 26.16 218.473 26.16C217.876 26.16 217.321 26.112 216.809 26.016C216.297 25.9307 215.807 25.7707 215.337 25.536V24.224C215.817 24.4587 216.335 24.6453 216.889 24.784C217.444 24.912 217.977 24.976 218.489 24.976C219.513 24.976 220.249 24.7787 220.697 24.384C221.156 23.9787 221.385 23.424 221.385 22.72C221.385 22.0053 221.103 21.4933 220.537 21.184C219.983 20.864 219.199 20.704 218.185 20.704H217.081V19.504H218.201C219.14 19.504 219.849 19.3067 220.329 18.912C220.82 18.5173 221.065 17.9947 221.065 17.344C221.065 16.7893 220.879 16.3627 220.505 16.064C220.132 15.7547 219.625 15.6 218.985 15.6C218.367 15.6 217.839 15.6907 217.401 15.872C216.964 16.0533 216.532 16.2827 216.105 16.56L215.401 15.6C215.807 15.28 216.308 15.0027 216.905 14.768C217.513 14.5333 218.201 14.416 218.969 14.416C220.164 14.416 221.049 14.6827 221.625 15.216C222.212 15.7493 222.505 16.4267 222.505 17.248ZM226.845 24.32C226.707 24.8853 226.504 25.504 226.237 26.176C225.981 26.8587 225.725 27.488 225.469 28.064H224.429C224.579 27.456 224.728 26.7893 224.877 26.064C225.037 25.3387 225.155 24.6987 225.229 24.144H226.733L226.845 24.32ZM230.231 26L234.919 15.856H228.759V14.576H236.423V15.664L231.783 26H230.231ZM245.579 20.272C245.579 21.4987 245.451 22.5547 245.195 23.44C244.939 24.3147 244.534 24.9867 243.979 25.456C243.424 25.9253 242.688 26.16 241.771 26.16C240.48 26.16 239.526 25.6427 238.907 24.608C238.299 23.5627 237.995 22.1173 237.995 20.272C237.995 19.0347 238.118 17.9787 238.363 17.104C238.619 16.2293 239.024 15.5627 239.579 15.104C240.134 14.6347 240.864 14.4 241.771 14.4C243.051 14.4 244.006 14.9173 244.635 15.952C245.264 16.976 245.579 18.416 245.579 20.272ZM239.403 20.272C239.403 21.84 239.579 23.0133 239.931 23.792C240.294 24.5707 240.907 24.96 241.771 24.96C242.624 24.96 243.232 24.576 243.595 23.808C243.968 23.0293 244.155 21.8507 244.155 20.272C244.155 18.7147 243.968 17.5467 243.595 16.768C243.232 15.9893 242.624 15.6 241.771 15.6C240.907 15.6 240.294 15.9893 239.931 16.768C239.579 17.5467 239.403 18.7147 239.403 20.272ZM255.339 14.576C256.769 14.576 257.846 14.7893 258.571 15.216C259.307 15.632 259.675 16.3627 259.675 17.408C259.675 18.08 259.489 18.64 259.115 19.088C258.742 19.5253 258.203 19.808 257.499 19.936V20.016C257.979 20.0907 258.411 20.2293 258.795 20.432C259.19 20.6347 259.499 20.9227 259.723 21.296C259.947 21.6693 260.059 22.1547 260.059 22.752C260.059 23.7867 259.702 24.5867 258.987 25.152C258.283 25.7173 257.318 26 256.091 26H252.075V14.576H255.339ZM255.627 19.44C256.609 19.44 257.281 19.2853 257.643 18.976C258.006 18.656 258.187 18.1867 258.187 17.568C258.187 16.9387 257.963 16.4907 257.515 16.224C257.078 15.9467 256.374 15.808 255.403 15.808H253.515V19.44H255.627ZM253.515 20.64V24.784H255.819C256.833 24.784 257.537 24.5867 257.931 24.192C258.326 23.7973 258.523 23.28 258.523 22.64C258.523 22.0427 258.315 21.5627 257.899 21.2C257.494 20.8267 256.763 20.64 255.707 20.64H253.515ZM266.29 17.264C266.45 17.264 266.62 17.2747 266.802 17.296C266.994 17.3067 267.159 17.328 267.298 17.36L267.122 18.656C266.983 18.624 266.828 18.5973 266.658 18.576C266.498 18.5547 266.343 18.544 266.194 18.544C265.756 18.544 265.346 18.6667 264.962 18.912C264.578 19.1467 264.268 19.4827 264.034 19.92C263.81 20.3467 263.698 20.848 263.698 21.424V26H262.29V17.424H263.442L263.602 18.992H263.666C263.943 18.5227 264.3 18.1173 264.738 17.776C265.175 17.4347 265.692 17.264 266.29 17.264Z" fill="black"/>
</svg>
