<svg width="77" height="77" viewBox="0 0 77 77" fill="none" xmlns="http://www.w3.org/2000/svg">
<g filter="url(#filter0_d_2998_6269)">
<circle cx="38.5" cy="36.5" r="23.5" fill="white"/>
<path fill-rule="evenodd" clip-rule="evenodd" d="M26.4625 48.8511C27.564 46.057 29.7192 42.8085 33.5338 41.0531C35.1487 42.0797 39.4434 43.517 43.7039 41.0531C45.4309 41.6489 48.7699 43.9432 50.6943 48.7364C47.3553 51.4119 43.1176 53.0121 38.5061 53.0121C33.9609 53.0121 29.7788 51.4576 26.4625 48.8511ZM30.8445 29.8344V34.9525C30.8445 35.3009 30.5099 35.7028 29.2828 35.7028C28.3455 35.7028 28.0372 35.0865 28 34.7649V29.9952C28.1339 29.052 29.3014 28.9591 29.8685 29.0305C31.7091 24.5019 35.0556 23.0013 38.2348 23.0013C44.147 22.9156 46.7033 26.9851 47.2425 29.0305C48.5588 28.859 48.9622 29.5664 48.9994 29.9416V34.6578C49.0087 34.8364 48.9102 35.2741 48.4417 35.5956C47.9732 35.9172 47.1309 35.7296 46.7684 35.5956L45.5413 37.391C45.9563 37.8412 45.7142 38.3825 45.5413 38.5968C44.939 39.2399 44.2864 38.972 44.0354 38.7576C43.7751 38.579 43.3494 38.0716 43.7286 37.4714C44.1079 36.8711 44.6861 36.8819 44.9278 36.9622L46.2943 35.0329C46.2051 34.9472 46.1828 34.7471 46.1828 34.6578V29.9416C46.1828 28.9769 43.8402 24.0732 38.2348 24.1536C33.7504 24.2179 31.4395 27.9676 30.8445 29.8344ZM38.5 39C42.0898 39 45 36.0899 45 32.5C45 28.9101 42.0898 26 38.5 26C34.9101 26 32 28.9101 32 32.5C32 36.0899 34.9101 39 38.5 39Z" fill="#F46D69"/>
</g>
<defs>
<filter id="filter0_d_2998_6269" x="0" y="0" width="77" height="77" filterUnits="userSpaceOnUse" color-interpolation-filters="sRGB">
<feFlood flood-opacity="0" result="BackgroundImageFix"/>
<feColorMatrix in="SourceAlpha" type="matrix" values="0 0 0 0 0 0 0 0 0 0 0 0 0 0 0 0 0 0 127 0" result="hardAlpha"/>
<feOffset dy="2"/>
<feGaussianBlur stdDeviation="7.5"/>
<feColorMatrix type="matrix" values="0 0 0 0 0.370833 0 0 0 0 0.370833 0 0 0 0 0.370833 0 0 0 0.25 0"/>
<feBlend mode="normal" in2="BackgroundImageFix" result="effect1_dropShadow_2998_6269"/>
<feBlend mode="normal" in="SourceGraphic" in2="effect1_dropShadow_2998_6269" result="shape"/>
</filter>
</defs>
</svg>
