<svg width="32" height="32" viewBox="0 0 32 32" fill="none" xmlns="http://www.w3.org/2000/svg">
<path fill-rule="evenodd" clip-rule="evenodd" d="M19.7333 13.9837C19.7333 16.7548 17.5359 18.9674 14.8667 18.9674C12.1974 18.9674 10 16.7548 10 13.9837C10 11.2126 12.1974 9 14.8667 9C17.5359 9 19.7333 11.2126 19.7333 13.9837ZM18.4995 18.6824C17.5004 19.4871 16.2385 19.9674 14.8667 19.9674C11.6266 19.9674 9 17.2884 9 13.9837C9 10.679 11.6266 8 14.8667 8C18.1067 8 20.7333 10.679 20.7333 13.9837C20.7333 15.5244 20.1624 16.9291 19.2246 17.9897L24.0011 22.2884C24.2064 22.4731 24.2231 22.7892 24.0383 22.9945C23.8536 23.1997 23.5375 23.2164 23.3322 23.0317L18.4995 18.6824Z" fill="#727272"/>
</svg>
