<svg width="249" height="460" viewBox="0 0 249 460" fill="none" xmlns="http://www.w3.org/2000/svg">
<path d="M104.315 11.0909C104.914 10.7912 106.413 9.95186 107.612 8.99264C109.111 7.79362 115.106 0 122.899 0C129.134 0 134.09 1.39886 135.789 2.09828C137.587 2.99755 141.784 5.69534 144.182 9.29239C146.58 12.8895 148.179 14.7879 148.678 15.2875C149.478 16.0868 151.736 17.8054 154.374 18.285C157.011 18.7646 157.471 23.8805 157.371 26.3784C159.17 27.3776 161.568 30.8148 156.772 36.5701C157.771 37.4693 159.829 40.2271 160.069 44.0639C160.069 45.7426 158.27 49.1598 157.371 50.6585C156.572 52.0574 155.153 55.1549 155.872 56.3539C156.592 57.5529 158.171 58.0525 158.87 58.1524C159.37 58.4522 160.009 59.1116 158.57 59.3514C156.772 59.6512 155.273 58.7519 153.774 57.2531C152.275 55.7544 153.175 51.8576 154.673 49.7593C156.172 47.661 157.971 44.6634 155.872 41.9657C155.673 42.1651 154.797 43.6378 152.888 47.9322C152.893 47.9211 152.889 47.9296 152.875 47.9607C152.879 47.9512 152.883 47.9417 152.888 47.9322C152.838 48.028 152.026 49.584 149.877 50.6585C147.959 51.6178 147.879 54.2556 148.079 55.4546C148.379 58.4522 148.5 64 147.479 64.1475C146.269 64.3224 144.182 63.4481 143.283 63.2482C142.683 63.4481 141.424 64.4473 141.184 66.8453C141.184 67.3449 140.465 68.2242 137.587 67.7446V70.4424C137.587 70.5423 137.408 70.7421 136.688 70.7421C135.789 70.7421 134.89 71.6414 133.99 72.8404C133.091 74.0394 131.892 76.1377 127.396 74.0394C123.799 72.3608 121.501 71.3416 120.801 71.0419C119.003 73.4399 115.885 79.7947 117.804 86.0296C119.722 92.2645 123.999 101.817 125.897 105.813L133.99 127.995C134.99 130.893 137.168 137.767 137.887 142.084C138.607 146.4 140.985 148.279 142.084 148.678L155.273 149.578L155.872 142.084C153.674 138.786 148.738 131.892 146.58 130.693C144.422 129.494 146.88 127.396 148.379 126.496C155.473 119.402 171.28 102.756 177.755 92.924C177.854 92.4244 178.894 92.3244 182.251 95.9215L185.548 95.322L197.538 110.909C197.938 111.209 198.917 111.569 199.637 110.609C200.536 109.41 204.732 102.516 206.831 101.317C207.53 101.017 208.749 100.778 208.03 102.216C207.13 104.015 206.231 105.514 206.231 105.813C206.231 106.113 207.73 107.012 211.027 103.415L214.924 106.113C216.523 105.514 219.78 104.435 220.02 104.914C220.26 105.394 218.921 106.913 218.221 107.612C215.224 110.709 208.989 117.864 208.03 121.7L188.546 140.285V145.681L183.15 151.676C182.95 151.876 183.21 152.515 185.848 153.474C189.145 154.673 199.936 158.27 199.936 163.966C200.936 164.365 202.634 166.304 201.435 170.86C200.236 175.416 196.539 179.353 194.841 180.752V183.75C196.839 183.35 200.956 183.45 201.435 187.047C201.915 190.644 197.239 194.341 194.841 195.74C195.64 196.04 197.239 197.059 197.239 198.737C199.237 198.737 203.294 199.037 203.533 200.236C203.733 200.636 203.713 201.615 202.035 202.334C199.936 203.234 187.646 223.017 199.037 233.209C199.637 233.609 199.757 234.528 195.44 235.008C191.124 235.487 188.845 235.807 188.246 235.907C187.846 236.007 187.107 236.446 187.347 237.406C187.586 238.365 190.444 238.405 191.843 238.305C197.938 238.405 210.907 239.204 214.025 241.602C217.142 244 217.322 249.396 217.022 251.794L216.423 259.588C216.223 261.586 215.943 265.822 216.423 266.782C216.902 267.741 215.624 268.98 214.924 269.479V279.671C215.723 280.071 217.262 281.17 217.022 282.369C216.783 283.568 215.124 283.668 214.325 283.568V285.366L247.897 295.258C248.996 296.258 250.235 298.376 246.398 298.855C244.931 299.039 244.089 299.111 243.648 299.119C242.173 306.594 241.025 320.975 247.897 320.738C248.696 321.937 249.336 324.155 245.499 323.435C241.662 322.716 224.916 323.935 217.022 324.634C217.522 328.032 218.461 336.744 218.221 344.418C217.982 352.092 216.523 356.808 215.823 358.207C211.827 359.606 204.073 362.703 205.032 363.902C205.991 365.101 211.827 369.997 214.624 372.295C215.324 373.394 215.643 375.413 211.327 374.693C208.629 379.29 205.512 390.52 214.624 398.674C215.324 401.771 216.183 410.904 214.025 422.654L154.973 459.224L0 422.654C3.69697 417.159 9.8919 402.75 5.09583 389.082C4.89599 388.582 4.91598 387.523 6.5946 387.283C8.27323 387.043 19.0844 382.787 24.2801 380.688C25.3792 380.289 27.8772 379.549 29.0762 379.789C29.4759 375.093 30.3352 365.281 30.575 363.602C30.8148 361.924 30.6749 360.105 30.575 359.406H26.6782C26.0787 359.006 25.2393 357.967 26.6782 357.008C28.4767 355.809 31.4742 360.905 29.376 334.226C29.0762 332.128 28.1769 327.152 26.9779 324.035C25.7789 323.835 23.3809 322.956 23.3809 321.037C23.3809 319.119 23.7805 319.039 23.9804 319.239L32.6733 317.14C33.1728 316.741 33.4526 315.342 30.575 312.944C27.6973 310.546 26.5782 308.348 26.3784 307.548V286.565C26.1786 285.766 27.0379 284.407 32.0737 285.366V276.973C32.0737 275.974 34.4718 273.796 44.0639 273.077C53.6561 272.357 60.6504 271.578 62.9485 271.278C64.6359 271.058 64.8669 269.659 62.9485 269.18C59.4513 268.48 50.4787 266.962 42.5652 266.482C40.9665 266.582 38.1887 265.762 39.8674 261.686C41.9656 256.59 43.4644 248.497 40.4669 242.801C37.4693 237.106 35.0713 234.408 34.7715 220.919C34.9714 217.022 36.2104 207.85 39.5676 202.334C40.267 201.435 45.6826 199.637 61.7495 199.637C58.9517 193.642 54.7951 178.834 60.5504 167.563C60.2507 166.564 59.4713 164.086 58.7519 162.167C58.0325 160.249 59.6512 155.773 60.5504 153.774C62.1491 146.48 65.5863 129.854 66.5455 121.7C67.7446 111.509 70.7421 97.72 74.9387 92.924L79.7347 84.5308C80.1344 83.8314 80.9937 81.2935 81.2335 76.7372C81.4733 72.1809 86.9288 63.6479 89.6266 59.9509H96.2212C97.2204 58.4522 99.3387 55.2148 99.8183 54.2556C100.298 53.2964 99.6185 53.0566 99.2188 53.0566C98.5194 53.1565 96.8208 53.6561 95.6217 54.8551C94.123 56.3539 93.2237 57.2531 92.6242 56.9534C92.1446 56.7136 93.0239 56.0541 93.5235 55.7544C94.3228 55.2548 95.9814 53.6561 96.2212 51.258C96.2212 50.8584 96.1613 49.9991 95.9215 49.7593C95.6217 49.4595 94.7225 50.9583 95.0222 51.258C95.322 51.5578 93.2237 51.258 93.8232 49.7593C94.3028 48.5603 93.0239 47.661 92.3244 47.3612C91.3252 47.8608 88.7873 48.1406 86.6291 45.263C86.2294 44.7634 85.3701 43.4045 85.1303 41.9657C84.8306 40.1671 83.3318 39.5676 81.833 41.6659C80.3343 43.7642 81.5333 46.462 83.032 45.8625C84.2311 45.3829 83.7315 46.0623 83.3318 46.462C82.5324 46.9616 80.6939 47.4212 79.7347 45.263C78.5357 42.5652 77.6365 41.9657 77.3367 41.3661C77.0369 40.7666 75.5382 38.3686 74.9387 35.3711C74.3391 32.3735 74.6389 27.8772 79.435 23.9804C84.2311 20.0836 83.032 21.5823 85.7298 18.285C88.4276 14.9877 91.4252 15.2875 93.8232 16.4865C95.7416 17.4457 97.2204 18.6847 97.72 19.1843C98.4194 20.3833 100.358 21.2826 102.516 15.2875C103.415 13.1892 103.116 11.7568 104.315 11.0909Z" fill="#213031"/>
</svg>
