<svg width="21" height="20" viewBox="0 0 21 20" fill="none" xmlns="http://www.w3.org/2000/svg">
<path d="M3.13477 20H17.8646C19.5473 20 20.9163 18.6858 20.9163 17.0703V2.92969C20.9163 1.31424 19.5473 0 17.8646 0H3.13477C1.45201 0 0.0830078 1.31424 0.0830078 2.92969V17.0703C0.0830078 18.6858 1.45201 20 3.13477 20ZM1.30371 2.92969C1.30371 1.96045 2.12514 1.17188 3.13477 1.17188H17.8646C18.8742 1.17188 19.6956 1.96045 19.6956 2.92969V17.0703C19.6956 18.0396 18.8742 18.8281 17.8646 18.8281H3.13477C2.12514 18.8281 1.30371 18.0396 1.30371 17.0703V2.92969Z" fill="black"/>
<path d="M10.4993 15C13.3712 15 15.7077 12.7569 15.7077 10C15.7077 7.24306 13.3712 5 10.4993 5C7.62753 5 5.29102 7.24306 5.29102 10C5.29102 12.7569 7.62753 15 10.4993 15ZM10.4993 6.11111C12.7331 6.11111 14.5503 7.85561 14.5503 10C14.5503 12.1444 12.7331 13.8889 10.4993 13.8889C8.26561 13.8889 6.44842 12.1444 6.44842 10C6.44842 7.85561 8.26561 6.11111 10.4993 6.11111Z" fill="black"/>
<path d="M16.7493 6C17.8981 6 18.8327 5.10278 18.8327 4C18.8327 2.89722 17.8981 2 16.7493 2C15.6006 2 14.666 2.89722 14.666 4C14.666 5.10278 15.6006 6 16.7493 6ZM16.7493 3.33333C17.1322 3.33333 17.4438 3.63247 17.4438 4C17.4438 4.36753 17.1322 4.66667 16.7493 4.66667C16.3665 4.66667 16.0549 4.36753 16.0549 4C16.0549 3.63247 16.3665 3.33333 16.7493 3.33333Z" fill="black"/>
</svg>
