<svg width="239" height="255" viewBox="0 0 239 255" fill="none" xmlns="http://www.w3.org/2000/svg">
<path d="M121.298 8.12814L37.3662 2.43281C30.6517 19.9385 34.5685 33.1077 37.3662 37.5041L119.799 45.8972C112.605 32.4682 117.8 15.1224 121.298 8.12814Z" fill="#F9F9F8"/>
<path d="M168.959 3.03231L124.895 8.12814C114.103 29.4707 120.398 43.3993 124.895 47.6958L189.642 30.6097C184.366 18.3798 190.841 5.53027 194.737 0.634277H189.642C189.162 3.27212 185.445 4.33125 183.646 4.53109C179.33 6.92912 172.056 4.53109 168.959 3.03231Z" fill="#F9F9F8"/>
<path d="M164.462 54.8899L39.4645 40.5016C41.8625 49.3744 39.6643 58.5868 38.2655 62.084C66.1427 65.9808 125.554 74.4339 140.182 77.0717C158.467 80.369 162.664 83.9661 162.664 81.568C161.944 76.772 163.563 72.1757 164.462 70.4771V54.8899Z" fill="#F9F9F8"/>
<path d="M207.627 42.8997L167.16 54.8899C167.06 59.8858 166.92 69.9975 167.16 70.4771C164.043 76.712 164.862 80.4689 165.661 81.568L208.826 65.681V58.4869C211.464 48.8948 209.126 44.0987 207.627 42.8997Z" fill="#F9F9F8"/>
<path d="M207.627 77.3715V68.9783L167.16 84.2658C164.063 84.3657 156.729 84.2658 152.172 83.0668C138.743 81.628 118.6 88.2626 110.207 91.7597C109.807 97.0554 109.547 107.767 111.705 108.246C113.864 108.726 138.783 100.453 150.973 96.256L168.959 91.7597C181.248 87.663 206.188 79.4697 207.627 79.4697C209.066 79.4697 208.226 78.0709 207.627 77.3715Z" fill="#F9F9F8"/>
<path d="M108.108 104.949V91.7597C88.4244 86.8637 47.2581 76.6521 40.064 74.9734C32.8699 73.2948 31.0714 75.0733 31.0714 76.1724V86.9636C33.949 90.0811 44.6602 92.4591 49.6562 93.2585L97.6169 106.448C100.015 107.347 105.299 108.597 107.509 108.546C109.5 108.5 108.808 105.948 108.108 104.949Z" fill="#F9F9F8"/>
<path d="M29.8723 90.2609C26.2753 87.8629 24.3768 87.0635 23.8773 86.9636V105.848L49.0566 128.63C49.856 125.632 51.095 118.798 49.6562 115.44C48.2173 112.083 49.0566 106.847 49.6562 104.649C44.5603 100.852 33.4694 92.659 29.8723 90.2609Z" fill="#F9F9F8"/>
<path d="M78.4326 103.45H55.3515C50.5554 104.349 51.4547 108.246 52.6537 115.44C53.6129 121.196 52.6537 127.031 52.0542 129.229C55.8911 129.229 72.6373 127.43 80.5309 126.531L238.502 119.037C235.384 115.201 236.004 103.25 236.703 97.7548L146.477 100.752C140.882 102.651 127.353 107.167 118 110.045C108.648 112.922 87.725 106.847 78.4326 103.45Z" fill="#F9F9F8"/>
<path d="M38.2655 122.035H25.9755C26.675 123.534 28.4335 128.689 29.8723 137.322C31.3112 145.955 29.2728 153.509 28.0738 156.207L157.568 177.789C163.803 158.365 158.767 143.317 155.47 138.222C142.52 135.104 105.51 130.928 88.6243 129.229C84.5276 129.029 73.3967 129.049 61.6463 130.728C49.896 132.406 46.3589 130.428 46.0591 129.229L38.2655 122.035Z" fill="#F9F9F8"/>
<path d="M198.934 124.433L161.165 138.222C162.364 144.217 162.064 141.519 162.963 151.411C163.863 161.303 163.263 164.3 162.963 170.895C162.724 176.171 165.262 175.891 166.56 175.091C174.354 170.295 192.04 160.164 200.433 158.005C208.826 155.847 210.325 153.509 210.025 152.61C210.924 147.514 211.224 132.227 210.025 126.531C209.066 121.975 202.231 123.234 198.934 124.433Z" fill="#F9F9F8"/>
<path d="M29.8723 172.094C29.1529 169.936 28.3736 168.996 28.0738 168.797C27.6741 172.094 27.1146 179.648 28.0738 183.485C29.033 187.321 31.6709 195.675 32.8699 199.372V178.089C32.1705 176.99 30.5918 174.252 29.8723 172.094Z" fill="#F9F9F8"/>
<path d="M132.388 177.789L35.2679 178.089H34.6684C34.8683 183.784 35.148 196.314 34.6684 200.87C34.1888 205.427 36.8666 206.166 38.2655 205.966L204.629 199.971C201.032 190.379 202.531 177.789 203.73 172.693L174.354 173.293L166.56 178.689C165.062 179.488 161.165 180.967 157.568 180.487C150.374 178.569 137.784 177.889 132.388 177.789Z" fill="#F9F9F8"/>
<path d="M28.9731 194.276C22.0188 191.158 9.68886 188.78 4.3932 187.981C7.27084 200.691 3.19418 213.66 0.796143 218.556C39.5644 227.449 120.398 246.373 133.587 250.929C146.777 255.486 150.474 254.427 150.673 253.327C154.031 238.46 151.073 224.551 149.175 219.455L107.209 211.062C92.8208 208.184 72.0378 207.465 63.4449 207.465C55.951 207.765 40.3038 208.424 37.666 208.664C35.0281 208.904 33.3695 206.965 32.8699 205.966L28.9731 194.276Z" fill="#F9F9F8"/>
<path d="M186.344 203.868L152.772 219.455C156.848 235.042 155.27 247.732 153.971 252.128L207.027 220.354C206.628 218.456 206.068 214.12 207.027 211.961C207.987 209.803 207.427 205.067 207.027 202.969L186.344 203.868Z" fill="#F9F9F8"/>
</svg>
